<svg width="163" height="163" viewBox="0 0 163 163" fill="none" xmlns="http://www.w3.org/2000/svg">
<g id="User / User_Voice">
<path id="Vector" d="M101.875 129.042C101.875 114.038 83.6306 101.875 61.125 101.875C38.6194 101.875 20.375 114.038 20.375 129.042M114.291 35.1257C116.814 37.6483 118.815 40.6431 120.18 43.9392C121.545 47.2352 122.249 50.77 122.249 54.3375C122.249 57.9051 121.546 61.4304 120.181 64.7264C118.815 68.0225 116.814 71.0208 114.291 73.5434M129.042 20.375C133.501 24.8345 137.039 30.1286 139.452 35.9552C141.865 41.7818 143.113 48.0257 143.113 54.3323C143.113 60.639 141.868 66.8854 139.455 72.712C137.041 78.5385 133.501 83.8332 129.042 88.2927M61.125 81.5C46.1213 81.5 33.9583 69.3371 33.9583 54.3333C33.9583 39.3296 46.1213 27.1667 61.125 27.1667C76.1287 27.1667 88.2917 39.3296 88.2917 54.3333C88.2917 69.3371 76.1287 81.5 61.125 81.5Z" stroke="#EAE9C5" stroke-width="13.5833" stroke-linecap="round" stroke-linejoin="round"/>
</g>
</svg>
